<svg xmlns="http://www.w3.org/2000/svg" viewBox="0 0 920 350" width="920" height="350" font-family="-apple-system, Segoe UI, sans-serif">
<text x="56" y="22" font-size="15" font-weight="600" fill="#6b7280">Answering only what the library supports</text>
<line x1="56" x2="570" y1="278.0" y2="278.0" stroke="#9ca3af" stroke-opacity="0.35"/>
<text x="48" y="282.0" font-size="11" fill="#6b7280" text-anchor="end">-1</text>
<line x1="56" x2="570" y1="218.5" y2="218.5" stroke="#9ca3af" stroke-opacity="0.35"/>
<text x="48" y="222.5" font-size="11" fill="#6b7280" text-anchor="end">-0.5</text>
<line x1="56" x2="570" y1="159.0" y2="159.0" stroke="#9ca3af" stroke-opacity="0.35"/>
<text x="48" y="163.0" font-size="11" fill="#6b7280" text-anchor="end">0</text>
<line x1="56" x2="570" y1="99.5" y2="99.5" stroke="#9ca3af" stroke-opacity="0.35"/>
<text x="48" y="103.5" font-size="11" fill="#6b7280" text-anchor="end">0.5</text>
<line x1="56" x2="570" y1="40.0" y2="40.0" stroke="#9ca3af" stroke-opacity="0.35"/>
<text x="48" y="44.0" font-size="11" fill="#6b7280" text-anchor="end">1</text>
<text x="106.0" y="296" font-size="10" fill="#6b7280" text-anchor="middle"><tspan x="106.0">10-06</tspan><tspan x="106.0" dy="13">PDF cache broken</tspan></text>
<text x="209.5" y="296" font-size="10" fill="#6b7280" text-anchor="middle"><tspan x="209.5">10-06</tspan><tspan x="209.5" dy="13">PDFs on NAS</tspan></text>
<text x="313.0" y="296" font-size="10" fill="#6b7280" text-anchor="middle"><tspan x="313.0">10-06</tspan><tspan x="313.0" dy="13">Notes labelled</tspan></text>
<text x="416.5" y="296" font-size="10" fill="#6b7280" text-anchor="middle"><tspan x="416.5">10-07</tspan><tspan x="416.5" dy="13">Page anchors</tspan></text>
<text x="520.0" y="296" font-size="10" fill="#6b7280" text-anchor="middle"><tspan x="520.0">10-07</tspan><tspan x="520.0" dy="13">AI-in-the-loop</tspan></text>
<text x="14" y="159.0" font-size="11" fill="#6b7280" transform="rotate(-90 14 159.0)" text-anchor="middle">score</text>
<polyline points="209.5,94.0 416.5,94.0 520.0,94.0" fill="none" stroke="#2563eb" stroke-width="2.5"/>
<circle cx="209.5" cy="94.0" r="4" fill="#2563eb"/>
<circle cx="416.5" cy="94.0" r="4" fill="#2563eb"/>
<circle cx="520.0" cy="94.0" r="4" fill="#2563eb"/>
<rect x="588" y="37" width="12" height="12" rx="2" fill="#2563eb"/>
<text x="606" y="47" font-size="12" fill="#6b7280"><tspan x="606" dy="0">Search engine alone: answer</tspan><tspan x="606" dy="14">score (English)</tspan></text>
<polyline points="416.5,176.9 520.0,176.9" fill="none" stroke="#db2777" stroke-width="2.5" stroke-dasharray="7 5"/>
<circle cx="416.5" cy="176.9" r="4" fill="#db2777"/>
<circle cx="520.0" cy="176.9" r="4" fill="#db2777"/>
<rect x="588" y="75" width="12" height="12" rx="2" fill="#db2777"/>
<text x="606" y="85" font-size="12" fill="#6b7280"><tspan x="606" dy="0">Search engine alone: answer</tspan><tspan x="606" dy="14">score (Korean)</tspan></text>
<polyline points="209.5,159.0 416.5,159.0 520.0,159.0" fill="none" stroke="#059669" stroke-width="2.5"/>
<circle cx="209.5" cy="159.0" r="4" fill="#059669"/>
<circle cx="416.5" cy="159.0" r="4" fill="#059669"/>
<circle cx="520.0" cy="159.0" r="4" fill="#059669"/>
<rect x="588" y="113" width="12" height="12" rx="2" fill="#059669"/>
<text x="606" y="123" font-size="12" fill="#6b7280"><tspan x="606" dy="0">Search engine alone: declines</tspan><tspan x="606" dy="14">unanswerable</tspan></text>
</svg>
